<svg width="141" height="56" viewBox="0 0 141 56" fill="none" xmlns="http://www.w3.org/2000/svg">
<path d="M53.499 22.3859C48.1818 22.3859 45.741 24.6783 45.741 29.9182V30.7234C45.741 35.6956 47.8631 38.1076 52.8596 38.1076C54.459 38.1076 56.0566 37.8094 57.1908 36.8864V37.4827C57.1908 40.2803 55.9991 41.2033 53.2099 41.2033H51.5419C50.5856 41.2223 50.1519 41.3932 49.5755 42.3618C47.2142 46.1996 43.9416 49.3609 40.0638 51.5501C36.186 53.7393 31.8297 54.8848 27.4024 54.8795C12.9466 54.8795 1.17246 42.8214 1.17246 28C1.17246 13.1786 12.9392 1.12054 27.4024 1.12054C32.3748 1.12455 37.2438 2.57507 41.4433 5.30341C45.6428 8.03174 49.0002 11.9258 51.1249 16.5326H52.3295C50.1689 11.6097 46.6671 7.4308 42.2448 4.49803C37.8226 1.56526 32.6681 0.00336772 27.4006 0C12.335 0 0.0771484 12.5614 0.0771484 28C0.0771484 43.4386 12.335 56 27.4006 56C31.7218 56.0042 35.9822 54.956 39.8305 52.9417C43.6788 50.9275 47.005 48.0049 49.5347 44.4148H53.4434C58.5863 44.4148 61.2273 42.4188 61.2273 37.327V29.6504C61.2292 24.589 58.7012 22.3859 53.499 22.3859ZM57.2186 31.2267C57.2186 34.0262 56.2604 34.8903 53.499 34.8903C50.391 34.8903 49.7812 33.7888 49.7812 30.543V30.0359C49.7812 26.8206 50.3372 25.6678 53.499 25.6678C56.6089 25.6678 57.2186 26.8073 57.2186 30.0758V31.2267ZM15.9879 16.7586V31.3825C15.9879 36.8009 18.4287 39.0648 23.7459 39.0648C29.2669 39.0648 31.7151 36.8598 31.7151 31.411V30.0112C31.7151 24.8834 29.4485 22.3897 24.5076 22.3897C22.9397 22.3897 21.2253 22.7164 20.0596 23.6394V16.1034L15.9879 16.7586ZM23.8904 25.6602C26.6796 25.6602 27.6675 26.7997 27.6675 30.1575V31.4167C27.6675 34.6928 26.6796 35.8247 23.833 35.8247C20.9863 35.8247 19.9966 34.6852 19.9966 31.3882V29.6903C19.9966 26.6686 20.9844 25.6602 23.8904 25.6602ZM43.7357 26.2299L44.4048 22.8949H38.6595V18.3368L34.6193 18.9617V32.5695C34.6193 37.2738 36.4225 38.6735 41.332 38.6735H43.4818L44.1509 35.3689H41.6155C39.3786 35.3689 38.6502 34.7991 38.6502 32.3017V26.2242L43.7357 26.2299Z" fill="#001E62"/>
<path d="M72.4435 23.5615C68.4774 23.5615 66.6241 25.5728 66.6241 29.8973V41.6477H67.8788V35.6082C68.7851 36.8161 70.4735 37.5245 72.5121 37.5245C76.4671 37.5245 78.2314 35.5702 78.2314 31.1925V29.8631C78.2333 25.5025 76.4467 23.5615 72.4435 23.5615ZM76.9434 31.1925C76.9434 34.8979 75.7443 36.2748 72.514 36.2748C69.456 36.2748 67.9047 34.7554 67.9047 31.7338V29.8973C67.9047 26.2888 69.2206 24.815 72.4435 24.815C75.6664 24.815 76.9434 26.2299 76.9434 29.8612V31.1925ZM130.99 23.7856H127.598L127.316 25.0334H130.997C134.363 25.0334 135.499 25.9507 135.499 28.6723V29.9865C134.663 29.1319 133.188 28.697 131.103 28.697C127.767 28.697 126.158 30.1423 126.158 33.1145V33.3158C126.158 36.102 127.75 37.5169 130.892 37.5169H131.737C135.073 37.5169 136.752 36.102 136.752 33.3158V28.6647C136.744 25.1929 135.076 23.778 130.99 23.778V23.7856ZM135.491 33.5058C135.491 35.4999 134.426 36.2767 131.694 36.2767H131.166C128.529 36.2767 127.404 35.3936 127.404 33.3253V33.1069C127.404 30.8602 128.477 29.903 130.99 29.903H131.201C134.207 29.903 135.491 30.8279 135.491 32.9987V33.5058ZM139.333 18.6141V37.5264H140.586V18.6122L139.333 18.6141ZM111.089 25.0277L111.369 23.7799H105.762V20.2113L104.465 20.4468V32.6777C104.465 36.1608 105.738 37.4561 109.163 37.4561H111.017L111.252 36.2064H109.165C106.583 36.2064 105.757 35.367 105.757 32.7499V25.0258L111.089 25.0277ZM122.696 32.0965C122.696 35.3157 121.714 36.3489 118.652 36.3489C115.687 36.3489 114.679 35.2758 114.679 32.0965V23.778H113.381V32.0946C113.381 36.0545 114.864 37.6023 118.643 37.6023C122.422 37.6023 123.94 36.0089 123.94 32.0946V23.778H122.687L122.696 32.0965ZM85.0609 23.7799H81.6638L81.3821 25.0277H85.0609C88.3969 25.0277 89.5274 25.945 89.5274 28.6666V29.9808C88.6934 29.1262 87.2182 28.6913 85.1313 28.6913C81.8046 28.6913 80.1867 30.1366 80.1867 33.1088V33.3158C80.1867 36.102 81.7917 37.5169 84.9553 37.5169H85.8022C89.1067 37.5169 90.7821 36.102 90.7821 33.3158V28.6647C90.7821 25.1929 89.1252 23.778 85.0609 23.778V23.7799ZM89.5274 33.5058C89.5274 35.5265 88.5081 36.2767 85.767 36.2767H85.237C82.5756 36.2767 81.4414 35.3936 81.4414 33.3253V33.1069C81.4414 30.8602 82.5126 29.903 85.0257 29.903H85.237C88.2449 29.903 89.5274 30.8279 89.5274 32.9987V33.5058ZM94.346 31.1944V30.0378C94.346 26.3382 95.5803 25.0277 99.0609 25.0277H102L102.28 23.7799H99.0571C94.9057 23.7799 93.0543 25.7095 93.0543 30.0473V31.2039C93.0543 35.5322 94.9076 37.4713 99.0571 37.4713H102.022L102.304 36.2216H99.0571C95.6619 36.2026 94.3405 34.7991 94.3405 31.1925L94.346 31.1944Z" fill="#001E62"/>
</svg>
